<svg width="160" height="56" viewBox="0 0 160 56" fill="none" xmlns="http://www.w3.org/2000/svg">
<g clip-path="url(#clip0_4_1919)">
<rect width="160" height="56" fill="white"/>
<rect width="160" height="56" fill="white"/>
<path d="M70.3032 19.7687C70.3032 20.6351 70.2732 21.9423 70.2134 23.6903C70.1535 25.4382 70.1235 26.7491 70.1235 27.6231C70.1235 28.4443 70.131 29.6762 70.146 31.3186C70.161 32.9536 70.1684 34.1817 70.1684 35.0029C70.1684 35.2515 70.0749 35.3758 69.8877 35.3758C69.7754 35.3758 69.607 35.3645 69.3824 35.3419C69.1579 35.3193 68.9894 35.308 68.8772 35.308C68.7574 35.308 68.574 35.3193 68.327 35.3419C68.0799 35.3645 67.8965 35.3758 67.7767 35.3758C67.642 35.3758 67.4811 35.2515 67.2939 35.0029C65.677 32.8104 63.2254 29.5406 59.9392 25.1933C59.4301 24.5303 59.1345 24.1611 59.0521 24.0858C58.9773 24.0858 58.9398 24.2403 58.9398 24.5492C58.9398 25.7094 58.9585 27.4536 58.996 29.7817C59.0334 32.1022 59.0521 33.8426 59.0521 35.0029C59.0521 35.2515 58.9773 35.3758 58.8275 35.3758C58.7003 35.3758 58.5057 35.3645 58.2437 35.3419C57.9817 35.3193 57.787 35.308 57.6598 35.308C57.525 35.308 57.3229 35.3193 57.0534 35.3419C56.7914 35.3645 56.593 35.3758 56.4583 35.3758C56.2712 35.3758 56.1776 35.3005 56.1776 35.1498C56.1776 34.321 56.215 33.0741 56.2899 31.4091C56.3722 29.7365 56.4134 28.482 56.4134 27.6457C56.4134 26.7341 56.3797 25.0916 56.3123 22.7183C56.2974 22.1005 56.2599 21.1738 56.2 19.9382L56.1888 19.7913C56.1813 19.6783 56.2712 19.618 56.4583 19.6105C56.9449 19.6029 57.3267 19.5879 57.6036 19.5653C57.7084 19.5577 57.9068 19.5276 58.1987 19.4749C58.4458 19.4297 58.6404 19.4071 58.7826 19.4071C58.85 19.4071 58.966 19.5163 59.1307 19.7348C60.8524 22.1156 63.4874 25.6567 67.0357 30.358C67.1929 30.5539 67.3388 30.7234 67.4736 30.8666C67.526 30.5502 67.5522 29.8269 67.5522 28.6967C67.5522 27.7173 67.5147 26.2481 67.4399 24.2892C67.3725 22.3303 67.3388 20.8649 67.3388 19.893C67.3388 19.6444 67.4137 19.5201 67.5634 19.5201C67.6982 19.5201 67.9003 19.5314 68.1698 19.554C68.4467 19.5766 68.6526 19.5879 68.7873 19.5879C68.9296 19.5879 69.1429 19.5766 69.4274 19.554C69.7118 19.5314 69.9252 19.5201 70.0674 19.5201C70.2246 19.5201 70.3032 19.6029 70.3032 19.7687Z" fill="black"/>
<path d="M83.5754 25.1481C83.5754 25.1783 83.5642 25.2461 83.5417 25.3516C83.2498 27.0769 83.1038 28.5649 83.1038 29.8156C83.1038 29.8909 83.1974 31.5823 83.3845 34.8899L83.3958 35.0481C83.4032 35.2666 83.3022 35.3758 83.0926 35.3758C82.8905 35.3758 82.5798 35.3984 82.1606 35.4436C81.7489 35.4964 81.442 35.5227 81.2399 35.5227C81.0976 35.5227 80.9891 35.259 80.9142 34.7316C80.8394 34.2043 80.7683 33.9406 80.7009 33.9406C80.656 33.9406 80.4539 34.0875 80.0945 34.3813C79.6529 34.7429 79.2412 35.0179 78.8594 35.2063C78.268 35.5077 77.6766 35.6584 77.0853 35.6584C75.633 35.6584 74.4091 35.0745 73.4135 33.9067C72.4703 32.7916 71.9987 31.4919 71.9987 30.0077C71.9987 28.3351 72.4741 26.9526 73.4247 25.8601C74.4203 24.7224 75.7304 24.1536 77.3548 24.1536C78.5001 24.1536 79.4994 24.5529 80.3528 25.3516C80.4801 25.5022 80.6784 25.7207 80.9479 26.007C80.9704 26.0296 80.9928 26.0409 81.0153 26.0409C81.0602 26.0409 81.1238 25.8036 81.2062 25.3289C81.2885 24.8543 81.3933 24.617 81.5206 24.617C81.7227 24.617 82.1007 24.6735 82.6547 24.7865C83.2685 24.9221 83.5754 25.0426 83.5754 25.1481ZM80.7121 29.8721C80.7121 28.9454 80.4389 28.1505 79.8924 27.4875C79.316 26.7718 78.5787 26.4139 77.6804 26.4139C76.7821 26.4139 76.0335 26.768 75.4347 27.4762C74.8583 28.1543 74.5701 28.9529 74.5701 29.8721C74.5701 30.7837 74.8583 31.5748 75.4347 32.2454C76.0335 32.946 76.7821 33.2964 77.6804 33.2964C78.5562 33.2964 79.2898 32.9385 79.8812 32.2228C80.4351 31.5522 80.7121 30.7687 80.7121 29.8721Z" fill="black"/>
<path d="M102.484 34.9577C102.484 35.2515 102.398 35.3984 102.226 35.3984C102.114 35.3984 101.942 35.3871 101.71 35.3645C101.485 35.3419 101.313 35.3306 101.193 35.3306C101.066 35.3306 100.875 35.3382 100.62 35.3532C100.366 35.3683 100.175 35.3758 100.048 35.3758C99.8906 35.3758 99.812 35.1988 99.812 34.8447C99.812 34.4981 99.8232 33.982 99.8457 33.2964C99.8756 32.6032 99.8906 32.0834 99.8906 31.7368C99.8906 29.8306 99.8831 28.7683 99.8681 28.5498C99.8083 27.7738 99.6511 27.2389 99.3965 26.945C99.1046 26.6286 98.5843 26.4704 97.8358 26.4704C97.3642 26.4704 96.8327 26.6964 96.2413 27.1485C95.6275 27.6231 95.3093 28.0902 95.2869 28.5498C95.2569 29.1375 95.242 30.2111 95.242 31.7707C95.242 32.1399 95.2569 32.6936 95.2869 33.432C95.3168 34.1704 95.3318 34.7241 95.3318 35.0933C95.3318 35.2967 95.2644 35.3984 95.1297 35.3984C94.9949 35.3984 94.7965 35.3871 94.5345 35.3645C94.28 35.3419 94.0854 35.3306 93.9507 35.3306C93.8309 35.3306 93.655 35.3382 93.4229 35.3532C93.1908 35.3683 93.0149 35.3758 92.8952 35.3758C92.7455 35.3758 92.6706 35.2666 92.6706 35.0481C92.6706 34.6864 92.6818 34.144 92.7043 33.4207C92.7267 32.6899 92.738 32.1436 92.738 31.782V29.0584C92.738 28.207 92.6369 27.6005 92.4348 27.2389C92.1503 26.7265 91.6076 26.4704 90.8066 26.4704C90.335 26.4704 89.7736 26.67 89.1224 27.0694C88.4037 27.5063 88.0444 27.9471 88.0444 28.3916V31.6916C88.0444 32.0683 88.0481 32.6296 88.0556 33.3755C88.0631 34.1214 88.0669 34.6789 88.0669 35.0481C88.0669 35.2666 87.9808 35.3758 87.8086 35.3758H85.7201C85.5704 35.3758 85.4955 35.2741 85.4955 35.0707C85.4955 34.4604 85.4993 33.545 85.5067 32.3245C85.5142 31.0964 85.518 30.1772 85.518 29.5669C85.518 28.1882 85.372 26.8132 85.08 25.442C85.0576 25.344 85.0464 25.2649 85.0464 25.2046C85.0464 25.1067 85.08 25.0502 85.1474 25.0351C85.4244 25.005 85.8286 24.9485 86.3601 24.8656C86.6071 24.7903 86.9777 24.7074 87.4717 24.617L87.5616 24.6057C87.6514 24.6057 87.7337 24.8731 87.8086 25.4081C87.8909 25.9355 87.9621 26.1992 88.0219 26.1992C88.0219 26.1992 88.2091 26.0334 88.5834 25.7019C89.025 25.3176 89.4667 25.0125 89.9084 24.7865C90.5446 24.455 91.1809 24.2892 91.8172 24.2892C93.5389 24.2892 94.6356 24.9974 95.1072 26.4139C95.5713 25.8111 96.1477 25.3139 96.8364 24.9221C97.57 24.5002 98.2961 24.2892 99.0148 24.2892C100.4 24.2892 101.358 24.6961 101.889 25.5098C102.271 26.1125 102.462 27.0656 102.462 28.369C102.462 28.6176 102.454 29.0019 102.439 29.5217C102.425 30.0416 102.417 30.4258 102.417 30.6745C102.417 31.1491 102.428 31.8649 102.451 32.8217C102.473 33.771 102.484 34.483 102.484 34.9577Z" fill="black"/>
<path d="M115.622 25.1481C115.622 25.1783 115.611 25.2461 115.588 25.3516C115.296 27.0769 115.15 28.5649 115.15 29.8156C115.15 29.8909 115.244 31.5823 115.431 34.8899L115.442 35.0481C115.45 35.2666 115.349 35.3758 115.139 35.3758C114.937 35.3758 114.626 35.3984 114.207 35.4436C113.795 35.4964 113.488 35.5227 113.286 35.5227C113.144 35.5227 113.036 35.259 112.961 34.7316C112.886 34.2043 112.815 33.9406 112.747 33.9406C112.702 33.9406 112.5 34.0875 112.141 34.3813C111.699 34.7429 111.288 35.0179 110.906 35.2063C110.314 35.5077 109.723 35.6584 109.132 35.6584C107.68 35.6584 106.456 35.0745 105.46 33.9067C104.517 32.7916 104.045 31.4919 104.045 30.0077C104.045 28.3351 104.521 26.9526 105.471 25.8601C106.467 24.7224 107.777 24.1536 109.401 24.1536C110.547 24.1536 111.546 24.5529 112.399 25.3516C112.527 25.5022 112.725 25.7207 112.994 26.007C113.017 26.0296 113.039 26.0409 113.062 26.0409C113.107 26.0409 113.17 25.8036 113.253 25.3289C113.335 24.8543 113.44 24.617 113.567 24.617C113.769 24.617 114.147 24.6735 114.701 24.7865C115.315 24.9221 115.622 25.0426 115.622 25.1481ZM112.759 29.8721C112.759 28.9454 112.485 28.1505 111.939 27.4875C111.363 26.7718 110.625 26.4139 109.727 26.4139C108.829 26.4139 108.08 26.768 107.481 27.4762C106.905 28.1543 106.617 28.9529 106.617 29.8721C106.617 30.7837 106.905 31.5748 107.481 32.2454C108.08 32.946 108.829 33.2964 109.727 33.2964C110.603 33.2964 111.336 32.9385 111.928 32.2228C112.482 31.5522 112.759 30.7687 112.759 29.8721Z" fill="black"/>
<path d="M129.624 35.2854C129.624 35.3457 129.564 35.3758 129.444 35.3758C129.302 35.3758 129.085 35.3645 128.793 35.3419C128.501 35.3193 128.284 35.308 128.142 35.308C127.985 35.308 127.749 35.3193 127.434 35.3419C127.127 35.3645 126.895 35.3758 126.738 35.3758C126.566 35.3758 126.435 35.2816 126.345 35.0933C126.106 34.581 125.424 32.995 124.302 30.3354C124.189 30.0642 123.916 29.8984 123.482 29.8382C123.385 29.8306 123.044 29.8269 122.46 29.8269C121.427 29.8269 120.813 29.8419 120.619 29.8721C120.461 29.8947 120.383 30.0868 120.383 30.4484C120.383 30.9758 120.405 31.7669 120.45 32.8217C120.503 33.869 120.529 34.6525 120.529 35.1724C120.529 35.3306 120.454 35.4097 120.304 35.4097C120.155 35.4097 119.926 35.3947 119.619 35.3645C119.32 35.3269 119.092 35.308 118.934 35.308C118.807 35.308 118.612 35.3193 118.35 35.3419C118.088 35.3645 117.894 35.3758 117.767 35.3758C117.579 35.3758 117.486 35.2892 117.486 35.1159C117.486 34.2796 117.523 33.0251 117.598 31.3526C117.68 29.6724 117.722 28.4142 117.722 27.5779C117.722 25.1971 117.636 22.6581 117.463 19.9608L117.452 19.78C117.445 19.6293 117.602 19.554 117.924 19.554C118.568 19.554 119.529 19.5389 120.81 19.5088C122.097 19.4711 123.059 19.4523 123.695 19.4523C125.357 19.4523 126.69 19.8516 127.693 20.6502C128.801 21.5317 129.354 22.7824 129.354 24.4022C129.354 25.5173 129.205 26.395 128.905 27.0354C128.591 27.7135 128.007 28.3577 127.154 28.968C127.011 29.0659 126.94 29.1601 126.94 29.2505C126.94 29.356 127.386 30.358 128.277 32.2567C129.175 34.1553 129.624 35.1649 129.624 35.2854ZM126.547 25.0351C126.547 23.6714 126.158 22.7598 125.38 22.3002C124.803 21.9612 123.766 21.7916 122.269 21.7916C121.057 21.7916 120.439 21.8896 120.417 22.0855C120.364 22.4923 120.338 23.581 120.338 25.3516V27.5101C120.36 27.5252 120.409 27.5402 120.484 27.5553C120.619 27.5704 120.839 27.5892 121.146 27.6118C121.858 27.6495 122.625 27.6683 123.448 27.6683C125.514 27.6683 126.547 26.7906 126.547 25.0351Z" fill="black"/>
<path d="M141.538 25.1255C141.538 25.6755 141.515 26.5081 141.47 27.6231C141.425 28.7306 141.403 29.5632 141.403 30.1207C141.403 30.6707 141.418 31.4957 141.448 32.5957C141.485 33.6882 141.504 34.5094 141.504 35.0594C141.504 35.2101 141.433 35.308 141.291 35.3532C141.231 35.3683 140.471 35.3758 139.011 35.3758C138.921 35.3758 138.865 35.0933 138.843 34.5282C138.828 33.9632 138.787 33.6806 138.719 33.6806C138.682 33.6806 138.626 33.7145 138.551 33.7823C137.301 34.8748 136.065 35.421 134.845 35.421C133.191 35.421 132.098 34.8183 131.567 33.6128C131.237 32.8669 131.072 31.5258 131.072 29.5895C131.072 27.8416 131.211 26.3611 131.488 25.1481C131.555 24.8543 131.679 24.7074 131.858 24.7074C132.076 24.7074 132.401 24.7111 132.835 24.7187C133.27 24.7262 133.595 24.73 133.812 24.73C133.962 24.73 134.037 24.8129 134.037 24.9786C134.037 25.2724 133.988 25.7622 133.891 26.4478C133.786 27.1786 133.73 27.6947 133.722 27.9961C133.7 28.4481 133.689 28.9454 133.689 29.4878C133.689 30.8063 133.782 31.6916 133.969 32.1436C134.291 32.9573 135.006 33.3642 136.114 33.3642C136.586 33.3642 137.143 33.1306 137.787 32.6635C138.468 32.1738 138.82 31.7029 138.843 31.2508C138.88 30.6858 138.899 28.6967 138.899 25.2837C138.899 24.9146 139.052 24.73 139.359 24.73H141.212C141.429 24.73 141.538 24.8618 141.538 25.1255Z" fill="black"/>
<path d="M151.666 25.1255C151.666 25.2913 151.58 25.6605 151.407 26.2331C151.235 26.8057 151.116 27.092 151.048 27.092C150.711 26.9413 150.371 26.7906 150.026 26.6399C149.69 26.4892 149.319 26.4139 148.915 26.4139C147.994 26.4139 147.227 26.7567 146.613 27.4423C145.999 28.1279 145.692 28.9378 145.692 29.8721C145.692 30.7913 145.999 31.5861 146.613 32.2567C147.242 32.9498 148.009 33.2964 148.915 33.2964C149.416 33.2964 149.91 33.1721 150.397 32.9234C150.883 32.6748 151.097 32.5505 151.037 32.5505C151.134 32.5505 151.243 32.8669 151.363 33.4998C151.475 34.0724 151.531 34.468 151.531 34.6864C151.531 34.92 151.093 35.1498 150.217 35.3758C149.484 35.5642 148.941 35.6584 148.589 35.6584C147.047 35.6584 145.745 35.0782 144.682 33.918C143.641 32.7878 143.121 31.4392 143.121 29.8721C143.121 28.2748 143.63 26.9187 144.648 25.8036C145.696 24.6584 147.002 24.0858 148.567 24.0858C149.615 24.0858 150.573 24.3533 151.441 24.8882C151.591 24.9786 151.666 25.0577 151.666 25.1255Z" fill="black"/>
<path d="M156 21.8594C156 22.7862 155.487 23.2495 154.462 23.2495C153.421 23.2495 152.901 22.7862 152.901 21.8594C152.901 21.4451 153.062 21.1023 153.384 20.831C153.683 20.5749 154.042 20.4468 154.462 20.4468C154.881 20.4468 155.24 20.5786 155.54 20.8423C155.847 21.106 156 21.4451 156 21.8594ZM155.921 24.9221C155.921 25.5022 155.884 26.38 155.809 27.5553C155.742 28.7231 155.708 29.6008 155.708 30.1885C155.708 30.7385 155.719 31.5635 155.742 32.6635C155.764 33.756 155.775 34.5734 155.775 35.1159C155.775 35.2741 155.708 35.3532 155.573 35.3532H153.384C153.227 35.3532 153.148 35.1988 153.148 34.8899C153.148 34.37 153.159 33.5902 153.182 32.5505C153.212 31.5032 153.227 30.7159 153.227 30.1885C153.227 29.6008 153.182 28.7193 153.092 27.544C153.009 26.3687 152.968 25.4872 152.968 24.8995C152.968 24.7714 153.047 24.7074 153.204 24.7074C153.339 24.7074 153.545 24.7262 153.822 24.7639C154.106 24.8016 154.319 24.8204 154.462 24.8204C154.604 24.8204 154.813 24.8016 155.09 24.7639C155.375 24.7262 155.588 24.7074 155.731 24.7074C155.858 24.7074 155.921 24.779 155.921 24.9221Z" fill="black"/>
<path fill-rule="evenodd" clip-rule="evenodd" d="M2.57089 12.3832C2.44604 12.9087 2.42043 13.6429 2.50817 14.1814C2.71674 15.4609 3.44937 16.6148 4.49466 17.3099C5.04802 17.6779 5.43556 17.847 6.64098 18.2469C8.69164 18.9272 10.0526 19.321 12.4286 19.9217C14.0275 20.3259 14.3407 20.4419 14.9195 20.8442C15.3028 21.1107 15.753 21.5814 16.0243 21.9993C16.1368 22.1726 16.2289 22.3289 16.2289 22.3466C16.2289 22.383 16.0794 22.4109 14.7759 22.6178C10.5529 23.288 6.44893 23.5872 2.00595 23.5488C0.12651 23.5325 0 23.536 0 23.6036C0 23.7312 0.118791 24.2483 0.210893 24.5217C0.354297 24.9474 0.696971 25.5726 0.986145 25.936C1.76181 26.9109 2.86131 27.5101 4.14335 27.6567C4.49964 27.6974 4.73108 27.6934 5.51567 27.633C7.78298 27.4584 10.4715 27.1136 12.7216 26.7087C14.2945 26.4257 14.7957 26.4231 15.6478 26.6939C16.0273 26.8146 16.9058 27.2776 16.8485 27.3267C16.8058 27.3633 15.4805 28.1738 14.8773 28.5323C11.7757 30.3754 8.43745 32.0469 5.12601 33.415C4.73793 33.5753 4.40721 33.7189 4.39102 33.7341C4.31112 33.8092 5.07674 34.5743 5.548 34.8902C6.7433 35.6915 8.29687 35.8866 9.6552 35.406C10.3228 35.1699 12.9058 33.8301 14.9676 32.6505C16.2117 31.9388 16.6361 31.7679 17.3564 31.6888C17.8508 31.6345 18.4287 31.6707 18.4287 31.756C18.4287 31.8111 17.7339 32.9415 17.0854 33.9415C16.3117 35.1347 15.2499 36.6551 14.3305 37.8868C14.0246 38.2965 13.765 38.6562 13.7536 38.6862C13.7084 38.8047 14.6105 38.9332 15.2743 38.9027C16.6711 38.8387 17.9346 38.1634 18.7695 37.0346C19.1876 36.4693 19.3551 36.0963 20.1936 33.8654C20.4228 33.2555 20.6017 32.838 20.6367 32.8309C20.6855 32.8209 20.6952 32.9276 20.6932 33.457C20.6911 34.0133 20.7033 34.1351 20.788 34.408C21.1339 35.5218 21.9289 36.2767 23.0494 36.5551L23.4302 36.6497L23.2512 36.6808C22.9856 36.7269 22.5444 36.966 22.3151 37.1881C21.8707 37.6185 21.6525 38.126 21.653 38.728C21.6535 39.2581 21.7648 39.5553 22.2233 40.2515C23.0372 41.4872 23.5984 43.1485 23.6864 44.5825C23.7009 44.8181 23.7171 45.0059 23.7224 44.9999C23.7278 44.9938 23.7536 44.7635 23.7798 44.488C23.9249 42.962 24.4407 41.485 25.2885 40.168C25.6505 39.6056 25.7741 39.2994 25.8056 38.8867C25.8524 38.2725 25.6447 37.7037 25.2109 37.2585C24.9417 36.9822 24.5061 36.7351 24.1951 36.6823C24.0285 36.654 23.9226 36.5408 23.9632 36.4345C23.9745 36.4049 23.9522 36.1575 23.9136 35.8848L23.8435 35.3889L23.5331 35.3581C22.666 35.272 22.0109 34.839 21.6499 34.1134C21.3814 33.5737 21.3853 33.6715 21.5033 30.4637C21.559 28.9485 21.5311 23.3397 21.461 21.9907C21.3928 20.6765 21.2753 20.1755 20.8767 19.5009C20.5317 18.9169 19.8322 18.3004 19.222 18.0427C19.0711 17.979 18.6114 17.8397 18.2004 17.7332C12.9637 16.3762 8.14135 14.6137 3.14687 12.2313L2.66196 12L2.57089 12.3832Z" fill="black"/>
<path fill-rule="evenodd" clip-rule="evenodd" d="M44.8658 12.3832C44.9906 12.9087 45.0162 13.6429 44.9285 14.1814C44.7199 15.4609 43.9873 16.6148 42.942 17.3099C42.3886 17.6779 42.0011 17.847 40.7957 18.2469C38.745 18.9272 37.384 19.321 35.0081 19.9217C33.4091 20.3259 33.096 20.4419 32.5172 20.8442C32.1339 21.1107 31.6836 21.5814 31.4123 21.9993C31.2998 22.1726 31.2078 22.3289 31.2078 22.3466C31.2078 22.383 31.3572 22.4109 32.6608 22.6178C36.8837 23.288 40.9877 23.5872 45.4307 23.5488C47.3102 23.5325 47.4367 23.536 47.4367 23.6036C47.4367 23.7312 47.3179 24.2483 47.2258 24.5217C47.0824 24.9474 46.7397 25.5726 46.4505 25.936C45.6749 26.9109 44.5754 27.5101 43.2933 27.6567C42.937 27.6974 42.7056 27.6934 41.921 27.633C39.6537 27.4584 36.9651 27.1136 34.715 26.7087C33.1422 26.4257 32.641 26.4231 31.7889 26.6939C31.4094 26.8146 30.5308 27.2776 30.5882 27.3267C30.6308 27.3633 31.9561 28.1738 32.5593 28.5323C35.661 30.3754 38.9992 32.0469 42.3107 33.415C42.6987 33.5753 43.0295 33.7189 43.0457 33.7341C43.1255 33.8092 42.3599 34.5743 41.8887 34.8902C40.6934 35.6915 39.1398 35.8866 37.7815 35.406C37.1138 35.1699 34.5309 33.8301 32.4691 32.6505C31.225 31.9388 30.8006 31.7679 30.0803 31.6888C29.5859 31.6345 29.0079 31.6707 29.0079 31.756C29.0079 31.8111 29.7028 32.9415 30.3512 33.9415C31.125 35.1347 32.1867 36.6551 33.1062 37.8868C33.4121 38.2965 33.6717 38.6562 33.6831 38.6862C33.7283 38.8047 32.8262 38.9332 32.1624 38.9027C30.7656 38.8387 29.5021 38.1634 28.6672 37.0346C28.2491 36.4693 28.0815 36.0963 27.2431 33.8654C27.0139 33.2555 26.835 32.838 26.7999 32.8309C26.7511 32.8209 26.7415 32.9276 26.7435 33.457C26.7456 34.0133 26.7334 34.1351 26.6486 34.408C26.3028 35.5218 25.5078 36.2767 24.3873 36.5551L24.0064 36.6497L24.1854 36.6808C24.451 36.7269 24.8923 36.966 25.1216 37.1881C25.566 37.6185 25.7842 38.126 25.7836 38.728C25.7831 39.2581 25.6719 39.5553 25.2134 40.2515C24.3995 41.4872 23.8383 43.1485 23.7503 44.5825C23.7358 44.8181 23.7196 45.0059 23.7142 44.9999C23.7089 44.9938 23.6831 44.7635 23.6569 44.488C23.5117 42.962 22.9959 41.485 22.1482 40.168C21.7862 39.6056 21.6626 39.2994 21.6311 38.8867C21.5843 38.2725 21.792 37.7037 22.2258 37.2585C22.4949 36.9822 22.9305 36.7351 23.2416 36.6823C23.4081 36.654 23.514 36.5408 23.4734 36.4345C23.4621 36.4049 23.4844 36.1575 23.523 35.8848L23.5931 35.3889L23.9036 35.3581C24.7707 35.272 25.4258 34.839 25.7868 34.1134C26.0553 33.5737 26.0513 33.6715 25.9334 30.4637C25.8776 28.9485 25.9056 23.3397 25.9756 21.9907C26.0438 20.6765 26.1614 20.1755 26.5599 19.5009C26.905 18.9169 27.6045 18.3004 28.2146 18.0427C28.3656 17.979 28.8253 17.8397 29.2362 17.7332C34.4729 16.3762 39.2953 14.6137 44.2898 12.2313L44.7747 12L44.8658 12.3832Z" fill="black"/>
</g>
<defs>
<clipPath id="clip0_4_1919">
<rect width="160" height="56" fill="white"/>
</clipPath>
</defs>
</svg>
