<svg width="24" height="24" viewBox="0 0 24 24" fill="none" xmlns="http://www.w3.org/2000/svg">
<path fill-rule="evenodd" clip-rule="evenodd" d="M1.53701 3.06631C1.32593 3.15497 1.13209 3.35869 1.05205 3.57603C1.00513 3.70348 0.994784 3.77842 1.00215 3.93773C1.01802 4.28051 1.18636 4.54052 1.49142 4.69348L1.66736 4.78168L2.75292 4.7895L3.83847 4.7973L3.86426 4.89667C3.87845 4.9513 4.41072 7.11662 5.04714 9.70844C6.01165 13.6367 6.21965 14.4526 6.297 14.6114C6.51771 15.0646 6.94295 15.4113 7.43532 15.5395C7.60345 15.5833 7.73125 15.5926 8.18018 15.5942L8.72208 15.5961L8.49271 15.6453C8.17423 15.7137 8.02124 15.7678 7.75612 15.9058C7.09089 16.2522 6.60178 16.8634 6.38788 17.6156C6.33403 17.805 6.32722 17.8847 6.32851 18.3117C6.32985 18.7586 6.33524 18.8115 6.40178 19.0319C6.68763 19.9791 7.38805 20.6664 8.33585 20.9297C8.62731 21.0107 9.2906 21.0107 9.58206 20.9297C10.0873 20.7894 10.5088 20.5376 10.8551 20.1692C11.0996 19.9091 11.2268 19.7215 11.3704 19.4095C11.5499 19.0196 11.587 18.8332 11.5887 18.3117C11.59 17.916 11.5822 17.8264 11.5293 17.6285C11.3363 16.9075 10.8564 16.2842 10.2308 15.9424C9.96473 15.797 9.79229 15.7313 9.48533 15.6585L9.22214 15.5961L12.9463 15.5969C16.5331 15.5977 16.6626 15.5995 16.4599 15.6438C15.8799 15.7707 15.4378 16.0094 15.0584 16.4004C14.732 16.7368 14.5514 17.0349 14.4091 17.472C13.8278 19.257 15.2282 21.1066 17.0767 20.9952C17.754 20.9544 18.3257 20.6851 18.8154 20.1761C19.3524 19.618 19.6053 18.9485 19.57 18.1778C19.5127 16.9222 18.65 15.9126 17.4073 15.6468L17.1705 15.5961L17.71 15.5937C18.3324 15.591 18.5111 15.562 18.7932 15.4179C19.1802 15.2202 19.4723 14.9117 19.6324 14.5315C19.6618 14.4615 20.0298 13.1193 20.4501 11.5488C20.8703 9.97829 21.391 8.03404 21.6071 7.22821C21.8232 6.42238 22 5.75022 22 5.73454C22 5.71442 19.8145 5.70601 14.5943 5.70601H7.18866L7.38424 6.50308C7.49178 6.94148 7.5915 7.34537 7.60584 7.40062L7.63187 7.50109H13.6732H19.7144L19.6978 7.57476C19.6886 7.6153 19.3115 9.02891 18.8597 10.7161L18.0383 13.7839L12.9591 13.7906L7.87988 13.7973L6.69839 8.99478C5.46703 3.98954 5.47843 4.0315 5.26406 3.71433C5.0943 3.46316 4.73384 3.19923 4.39261 3.07628C4.22441 3.01567 4.20028 3.01452 2.95823 3.00731L1.69492 3L1.53701 3.06631ZM9.34679 17.4918C9.51447 17.5751 9.6763 17.7443 9.75921 17.9232C9.81603 18.0459 9.82748 18.1089 9.82748 18.2989C9.82748 18.5026 9.81822 18.5463 9.74139 18.7052C9.58545 19.0277 9.32039 19.1929 8.95895 19.1929C8.78841 19.1929 8.72029 19.1798 8.60049 19.1238C8.40162 19.0309 8.26095 18.8958 8.16791 18.7084C8.09961 18.5708 8.09069 18.5251 8.09056 18.3117C8.09048 18.1641 8.10501 18.0342 8.12801 17.9768C8.22352 17.7385 8.42199 17.5435 8.65629 17.4576C8.8317 17.3933 9.1834 17.4108 9.34679 17.4918ZM17.3294 17.5007C17.4913 17.5854 17.667 17.7743 17.7422 17.9441C17.8284 18.1389 17.8236 18.4765 17.7319 18.6774C17.6074 18.9498 17.394 19.1191 17.0964 19.1816C16.4189 19.324 15.8598 18.6355 16.1069 17.9632C16.1807 17.7625 16.3851 17.5496 16.5785 17.4719C16.787 17.3882 17.1406 17.4017 17.3294 17.5007Z" fill="#3B3B3B"/>
</svg>
